<svg xmlns="http://www.w3.org/2000/svg" class="interaction-arrows" width="33.451" height="24.936" viewBox="0 0 33.451 24.936"><g id="Group_3899" data-name="Group 3899" transform="translate(-421.187 -228.483)"><path id="Path_2507" fill="#741D5C" data-name="Path 2507" d="M453.224,247.734h-8.07a8.251,8.251,0,0,1-8.242-8.242,6.249,6.249,0,0,0-6.242-6.243H422.6v-2h8.069a8.252,8.252,0,0,1,8.242,8.243,6.249,6.249,0,0,0,6.242,6.242h8.07Z" transform="translate(0 1.459)"></path><path id="Path_2508" fill="#741D5C" data-name="Path 2508" d="M426.413,238.934l-5.226-5.226,5.226-5.226,1.414,1.414-3.811,3.812,3.811,3.812Z" transform="translate(0)"></path><path id="Path_2509" fill="#741D5C" data-name="Path 2509" d="M440.982,248.741l-1.414-1.414,3.811-3.811-3.812-3.811,1.414-1.414,5.226,5.226Z" transform="translate(8.43 4.678)"></path><path id="Line_357" fill="#741D5C" data-name="Line 357" d="M10.563,1H0V-1H10.563Z" transform="translate(442.661 233.709)"></path><path id="Path_2510" fill="#741D5C" data-name="Path 2510" d="M440.982,238.934l-1.414-1.414,3.811-3.811-3.812-3.811,1.414-1.414,5.226,5.226Z" transform="translate(8.43 0)"></path><path id="Line_358" fill="#741D5C" data-name="Line 358" d="M10.563,1H0V-1H10.563Z" transform="translate(422.601 248.193)"></path><path id="Path_2511" fill="#741D5C" data-name="Path 2511" d="M426.413,248.741l-5.226-5.226,5.226-5.226,1.414,1.414-3.811,3.811,3.812,3.811Z" transform="translate(0 4.678)"></path></g></svg>